<?xml version="1.0" encoding="utf-8"?>
<!-- Generator: Adobe Illustrator 16.0.0, SVG Export Plug-In . SVG Version: 6.00 Build 0)  -->
<!DOCTYPE svg PUBLIC "-//W3C//DTD SVG 1.1//EN" "http://www.w3.org/Graphics/SVG/1.1/DTD/svg11.dtd">
<svg version="1.1" id="Layer_1" xmlns="http://www.w3.org/2000/svg" xmlns:xlink="http://www.w3.org/1999/xlink" x="0px" y="0px"
	 width="512px" height="512px" viewBox="0 0 512 512" enable-background="new 0 0 512 512" xml:space="preserve">
<path fill="#FFFFFF" d="M277.332,384c0,11.781-9.551,21.332-21.332,21.332s-21.332-9.551-21.332-21.332s9.551-21.332,21.332-21.332
	S277.332,372.219,277.332,384z"/>
<path fill="#FFFFFF" d="M256,512C114.836,512,0,397.164,0,256S114.836,0,256,0s256,114.836,256,256S397.164,512,256,512z M256,32
	C132.481,32,32,132.48,32,256s100.48,224,224,224s224-100.48,224-224S379.52,32,256,32z"/>
<path fill="#FFFFFF" d="M256,314.668c-8.832,0-16-7.168-16-16v-21.547c0-20.309,12.887-38.508,32.043-45.27
	c25.492-8.98,42.625-36.141,42.625-55.852c0-32.363-26.305-58.668-58.668-58.668S197.332,143.637,197.332,176
	c0,8.832-7.168,16-16,16s-16-7.168-16-16c0-49.984,40.664-90.668,90.668-90.668s90.668,40.684,90.668,90.668
	c0,35.586-28.098,73.367-63.98,86.039c-6.398,2.238-10.688,8.316-10.688,15.102v21.527C272,307.5,264.832,314.668,256,314.668z"/>
</svg>
